<svg width="1000" height="650" viewBox="0 0 1000 650" xmlns="http://www.w3.org/2000/svg">
  <!-- Title -->
  <rect x="0" y="0" width="1000" height="60" fill="#FF5722"/>
  <text x="500" y="38" font-family="Arial, sans-serif" font-size="26" font-weight="bold" fill="white" text-anchor="middle">2024-2025: State-of-the-Art Transformers</text>
  
  <!-- Subtitle -->
  <text x="500" y="85" font-family="Arial, sans-serif" font-size="14" fill="#666" text-anchor="middle">GPT-4o, Claude 3.5, Gemini 2, Llama 3.3 | Multimodal | Reasoning | Efficiency</text>
  
  <!-- MoE Block -->
  <rect x="30" y="110" width="290" height="420" rx="15" fill="#FBE9E7" stroke="#FF5722" stroke-width="3"/>
  <text x="175" y="145" font-family="Arial, sans-serif" font-size="16" font-weight="bold" fill="#D84315" text-anchor="middle">Mixture of Experts</text>
  <text x="175" y="168" font-family="Arial, sans-serif" font-size="10" fill="#666" text-anchor="middle">Mixtral, GPT-4, Gemini</text>
  
  <!-- MoE Components -->
  <rect x="55" y="190" width="230" height="35" rx="6" fill="#FFCCBC"/>
  <text x="170" y="212" font-family="Arial, sans-serif" font-size="10" fill="#D84315" text-anchor="middle">Input</text>
  
  <rect x="55" y="240" width="230" height="40" rx="8" fill="#FF9800"/>
  <text x="170" y="265" font-family="Arial, sans-serif" font-size="11" font-weight="bold" fill="white" text-anchor="middle">Attention (GQA + RoPE)</text>
  
  <rect x="55" y="295" width="230" height="35" rx="6" fill="#FFE082"/>
  <text x="170" y="317" font-family="Arial, sans-serif" font-size="10" fill="#F57F17" text-anchor="middle">Add + RMSNorm</text>
  
  <!-- Router -->
  <rect x="55" y="345" width="230" height="45" rx="8" fill="#E91E63"/>
  <text x="170" y="365" font-family="Arial, sans-serif" font-size="11" font-weight="bold" fill="white" text-anchor="middle">Router (Gating Network)</text>
  <text x="170" y="382" font-family="Arial, sans-serif" font-size="9" fill="white" text-anchor="middle">Top-k expert selection</text>
  
  <!-- Expert boxes -->
  <rect x="60" y="405" width="50" height="35" rx="4" fill="#9C27B0"/>
  <text x="85" y="427" font-family="Arial, sans-serif" font-size="9" fill="white" text-anchor="middle">E1</text>
  <rect x="115" y="405" width="50" height="35" rx="4" fill="#9C27B0"/>
  <text x="140" y="427" font-family="Arial, sans-serif" font-size="9" fill="white" text-anchor="middle">E2</text>
  <rect x="170" y="405" width="50" height="35" rx="4" fill="#E0E0E0"/>
  <text x="195" y="427" font-family="Arial, sans-serif" font-size="9" fill="#666" text-anchor="middle">...</text>
  <rect x="225" y="405" width="50" height="35" rx="4" fill="#9C27B0"/>
  <text x="250" y="427" font-family="Arial, sans-serif" font-size="9" fill="white" text-anchor="middle">E8</text>
  
  <text x="170" y="465" font-family="Arial, sans-serif" font-size="9" fill="#666" text-anchor="middle">Only 2 of 8 experts active!</text>
  
  <rect x="55" y="485" width="230" height="30" rx="6" fill="#FFE082"/>
  <text x="170" y="505" font-family="Arial, sans-serif" font-size="10" fill="#F57F17" text-anchor="middle">Add</text>
  
  <!-- Modern Attention -->
  <rect x="350" y="110" width="290" height="420" rx="15" fill="#E8F5E9" stroke="#4CAF50" stroke-width="3"/>
  <text x="495" y="145" font-family="Arial, sans-serif" font-size="16" font-weight="bold" fill="#2E7D32" text-anchor="middle">Modern Attention</text>
  <text x="495" y="168" font-family="Arial, sans-serif" font-size="10" fill="#666" text-anchor="middle">2024-25 Optimizations</text>
  
  <rect x="370" y="195" width="250" height="50" rx="8" fill="#4CAF50"/>
  <text x="495" y="215" font-family="Arial, sans-serif" font-size="11" font-weight="bold" fill="white" text-anchor="middle">Flash Attention 2/3</text>
  <text x="495" y="235" font-family="Arial, sans-serif" font-size="9" fill="white" text-anchor="middle">IO-aware, kernel fusion</text>
  
  <rect x="370" y="260" width="250" height="50" rx="8" fill="#2196F3"/>
  <text x="495" y="280" font-family="Arial, sans-serif" font-size="11" font-weight="bold" fill="white" text-anchor="middle">Grouped Query Attention</text>
  <text x="495" y="300" font-family="Arial, sans-serif" font-size="9" fill="white" text-anchor="middle">8 KV heads vs 32 Q heads</text>
  
  <rect x="370" y="325" width="250" height="50" rx="8" fill="#FF9800"/>
  <text x="495" y="345" font-family="Arial, sans-serif" font-size="11" font-weight="bold" fill="white" text-anchor="middle">Ring Attention</text>
  <text x="495" y="365" font-family="Arial, sans-serif" font-size="9" fill="white" text-anchor="middle">Distributed, 1M+ context</text>
  
  <rect x="370" y="390" width="250" height="50" rx="8" fill="#9C27B0"/>
  <text x="495" y="410" font-family="Arial, sans-serif" font-size="11" font-weight="bold" fill="white" text-anchor="middle">KV Cache Compression</text>
  <text x="495" y="430" font-family="Arial, sans-serif" font-size="9" fill="white" text-anchor="middle">Quantized, shared prefixes</text>
  
  <rect x="370" y="455" width="250" height="50" rx="8" fill="#E91E63"/>
  <text x="495" y="475" font-family="Arial, sans-serif" font-size="11" font-weight="bold" fill="white" text-anchor="middle">Speculative Decoding</text>
  <text x="495" y="495" font-family="Arial, sans-serif" font-size="9" fill="white" text-anchor="middle">Draft + verify for 2-3x speed</text>
  
  <!-- Model Comparison -->
  <rect x="680" y="110" width="290" height="420" rx="15" fill="#F3E5F5" stroke="#9C27B0" stroke-width="3"/>
  <text x="825" y="145" font-family="Arial, sans-serif" font-size="16" font-weight="bold" fill="#7B1FA2" text-anchor="middle">2025 SOTA Models</text>
  
  <rect x="700" y="175" width="250" height="60" rx="8" fill="#E3F2FD"/>
  <text x="825" y="200" font-family="Arial, sans-serif" font-size="12" font-weight="bold" fill="#1565C0" text-anchor="middle">GPT-4o / o1</text>
  <text x="825" y="220" font-family="Arial, sans-serif" font-size="9" fill="#666" text-anchor="middle">Multimodal | Chain-of-thought</text>
  
  <rect x="700" y="250" width="250" height="60" rx="8" fill="#FCE4EC"/>
  <text x="825" y="275" font-family="Arial, sans-serif" font-size="12" font-weight="bold" fill="#C2185B" text-anchor="middle">Claude 3.5 Sonnet</text>
  <text x="825" y="295" font-family="Arial, sans-serif" font-size="9" fill="#666" text-anchor="middle">200K context | Constitutional AI</text>
  
  <rect x="700" y="325" width="250" height="60" rx="8" fill="#E8F5E9"/>
  <text x="825" y="350" font-family="Arial, sans-serif" font-size="12" font-weight="bold" fill="#2E7D32" text-anchor="middle">Gemini 2.0</text>
  <text x="825" y="370" font-family="Arial, sans-serif" font-size="9" fill="#666" text-anchor="middle">Native multimodal | Agents</text>
  
  <rect x="700" y="400" width="250" height="60" rx="8" fill="#FFF3E0"/>
  <text x="825" y="425" font-family="Arial, sans-serif" font-size="12" font-weight="bold" fill="#E65100" text-anchor="middle">Llama 3.3</text>
  <text x="825" y="445" font-family="Arial, sans-serif" font-size="9" fill="#666" text-anchor="middle">Open weights | 70B quality at 8B</text>
  
  <rect x="700" y="475" width="250" height="40" rx="8" fill="#ECEFF1"/>
  <text x="825" y="500" font-family="Arial, sans-serif" font-size="11" fill="#455A64" text-anchor="middle">Qwen, DeepSeek, Mistral...</text>
  
  <!-- Bottom Summary -->
  <rect x="30" y="550" width="940" height="85" rx="10" fill="#FFF8E1" stroke="#FFC107" stroke-width="2"/>
  <text x="500" y="575" font-family="Arial, sans-serif" font-size="14" font-weight="bold" fill="#F57F17" text-anchor="middle">2024-2025 Key Trends</text>
  <text x="500" y="598" font-family="Arial, sans-serif" font-size="11" fill="#666" text-anchor="middle">MoE for efficiency (8 experts, use 2) | Flash Attention 3 | 1M+ context windows | Native multimodal</text>
  <text x="500" y="618" font-family="Arial, sans-serif" font-size="11" fill="#666" text-anchor="middle">Chain-of-thought reasoning | Smaller models, better quality | Open weights competitive with closed</text>
</svg>