<svg width="1100" height="800" viewBox="0 0 1100 800" xmlns="http://www.w3.org/2000/svg">
  <!-- Title -->
  <rect x="0" y="0" width="1100" height="55" fill="#673AB7"/>
  <text x="550" y="35" font-family="Arial, sans-serif" font-size="24" font-weight="bold" fill="white" text-anchor="middle">Transformer Architecture Evolution: 2017-2025</text>
  
  <!-- Timeline arrow -->
  <line x1="50" y1="90" x2="1050" y2="90" stroke="#333" stroke-width="4"/>
  <polygon points="1045,83 1060,90 1045,97" fill="#333"/>
  
  <!-- Year markers -->
  <circle cx="100" cy="90" r="20" fill="#4CAF50"/>
  <text x="100" y="95" font-family="Arial, sans-serif" font-size="12" font-weight="bold" fill="white" text-anchor="middle">2017</text>
  
  <circle cx="300" cy="90" r="20" fill="#2196F3"/>
  <text x="300" y="95" font-family="Arial, sans-serif" font-size="12" font-weight="bold" fill="white" text-anchor="middle">2018</text>
  
  <circle cx="500" cy="90" r="20" fill="#9C27B0"/>
  <text x="500" y="95" font-family="Arial, sans-serif" font-size="12" font-weight="bold" fill="white" text-anchor="middle">2020</text>
  
  <circle cx="700" cy="90" r="20" fill="#00BCD4"/>
  <text x="700" y="95" font-family="Arial, sans-serif" font-size="12" font-weight="bold" fill="white" text-anchor="middle">2023</text>
  
  <circle cx="900" cy="90" r="20" fill="#FF5722"/>
  <text x="900" y="95" font-family="Arial, sans-serif" font-size="12" font-weight="bold" fill="white" text-anchor="middle">2025</text>
  
  <!-- 2017 Box -->
  <rect x="30" y="125" width="140" height="280" rx="10" fill="#E8F5E9" stroke="#4CAF50" stroke-width="2"/>
  <text x="100" y="150" font-family="Arial, sans-serif" font-size="12" font-weight="bold" fill="#2E7D32" text-anchor="middle">Original</text>
  
  <rect x="45" y="165" width="110" height="25" rx="4" fill="#FF9800"/>
  <text x="100" y="182" font-family="Arial, sans-serif" font-size="9" fill="white" text-anchor="middle">Self-Attention</text>
  
  <rect x="45" y="195" width="110" height="25" rx="4" fill="#FFE082"/>
  <text x="100" y="212" font-family="Arial, sans-serif" font-size="9" fill="#333" text-anchor="middle">Post-LayerNorm</text>
  
  <rect x="45" y="225" width="110" height="25" rx="4" fill="#9C27B0"/>
  <text x="100" y="242" font-family="Arial, sans-serif" font-size="9" fill="white" text-anchor="middle">ReLU FFN</text>
  
  <rect x="45" y="255" width="110" height="25" rx="4" fill="#03A9F4"/>
  <text x="100" y="272" font-family="Arial, sans-serif" font-size="9" fill="white" text-anchor="middle">Sin/Cos Position</text>
  
  <text x="100" y="300" font-family="Arial, sans-serif" font-size="10" fill="#666" text-anchor="middle">65M params</text>
  <text x="100" y="315" font-family="Arial, sans-serif" font-size="10" fill="#666" text-anchor="middle">Enc-Dec</text>
  <text x="100" y="340" font-family="Arial, sans-serif" font-size="9" fill="#4CAF50" text-anchor="middle">Translation</text>
  
  <!-- 2018 Box -->
  <rect x="230" y="125" width="140" height="280" rx="10" fill="#E3F2FD" stroke="#2196F3" stroke-width="2"/>
  <text x="300" y="150" font-family="Arial, sans-serif" font-size="12" font-weight="bold" fill="#1565C0" text-anchor="middle">BERT/GPT</text>
  
  <rect x="245" y="165" width="110" height="25" rx="4" fill="#FF9800"/>
  <text x="300" y="182" font-family="Arial, sans-serif" font-size="9" fill="white" text-anchor="middle">Bi/Causal Attn</text>
  
  <rect x="245" y="195" width="110" height="25" rx="4" fill="#FFE082"/>
  <text x="300" y="212" font-family="Arial, sans-serif" font-size="9" fill="#333" text-anchor="middle">Post-LayerNorm</text>
  
  <rect x="245" y="225" width="110" height="25" rx="4" fill="#9C27B0"/>
  <text x="300" y="242" font-family="Arial, sans-serif" font-size="9" fill="white" text-anchor="middle">GELU FFN</text>
  
  <rect x="245" y="255" width="110" height="25" rx="4" fill="#03A9F4"/>
  <text x="300" y="272" font-family="Arial, sans-serif" font-size="9" fill="white" text-anchor="middle">Learned Position</text>
  
  <text x="300" y="300" font-family="Arial, sans-serif" font-size="10" fill="#666" text-anchor="middle">340M params</text>
  <text x="300" y="315" font-family="Arial, sans-serif" font-size="10" fill="#666" text-anchor="middle">Enc/Dec only</text>
  <text x="300" y="340" font-family="Arial, sans-serif" font-size="9" fill="#2196F3" text-anchor="middle">Pre-training</text>
  
  <!-- 2020 Box -->
  <rect x="430" y="125" width="140" height="280" rx="10" fill="#F3E5F5" stroke="#9C27B0" stroke-width="2"/>
  <text x="500" y="150" font-family="Arial, sans-serif" font-size="12" font-weight="bold" fill="#7B1FA2" text-anchor="middle">GPT-3</text>
  
  <rect x="445" y="165" width="110" height="25" rx="4" fill="#FF9800"/>
  <text x="500" y="182" font-family="Arial, sans-serif" font-size="9" fill="white" text-anchor="middle">Sparse Attention</text>
  
  <rect x="445" y="195" width="110" height="25" rx="4" fill="#4CAF50"/>
  <text x="500" y="212" font-family="Arial, sans-serif" font-size="9" fill="white" text-anchor="middle">Pre-LayerNorm</text>
  
  <rect x="445" y="225" width="110" height="25" rx="4" fill="#9C27B0"/>
  <text x="500" y="242" font-family="Arial, sans-serif" font-size="9" fill="white" text-anchor="middle">GELU FFN</text>
  
  <rect x="445" y="255" width="110" height="25" rx="4" fill="#03A9F4"/>
  <text x="500" y="272" font-family="Arial, sans-serif" font-size="9" fill="white" text-anchor="middle">Learned Position</text>
  
  <text x="500" y="300" font-family="Arial, sans-serif" font-size="10" fill="#666" text-anchor="middle">175B params</text>
  <text x="500" y="315" font-family="Arial, sans-serif" font-size="10" fill="#666" text-anchor="middle">Decoder only</text>
  <text x="500" y="340" font-family="Arial, sans-serif" font-size="9" fill="#9C27B0" text-anchor="middle">Few-shot</text>
  
  <!-- 2023 Box -->
  <rect x="630" y="125" width="140" height="280" rx="10" fill="#E0F7FA" stroke="#00BCD4" stroke-width="2"/>
  <text x="700" y="150" font-family="Arial, sans-serif" font-size="12" font-weight="bold" fill="#00838F" text-anchor="middle">LLaMA/Mistral</text>
  
  <rect x="645" y="165" width="110" height="25" rx="4" fill="#FF9800"/>
  <text x="700" y="182" font-family="Arial, sans-serif" font-size="9" fill="white" text-anchor="middle">GQA + Flash</text>
  
  <rect x="645" y="195" width="110" height="25" rx="4" fill="#4CAF50"/>
  <text x="700" y="212" font-family="Arial, sans-serif" font-size="9" fill="white" text-anchor="middle">RMSNorm</text>
  
  <rect x="645" y="225" width="110" height="25" rx="4" fill="#E91E63"/>
  <text x="700" y="242" font-family="Arial, sans-serif" font-size="9" fill="white" text-anchor="middle">SwiGLU FFN</text>
  
  <rect x="645" y="255" width="110" height="25" rx="4" fill="#FF5722"/>
  <text x="700" y="272" font-family="Arial, sans-serif" font-size="9" fill="white" text-anchor="middle">RoPE Position</text>
  
  <text x="700" y="300" font-family="Arial, sans-serif" font-size="10" fill="#666" text-anchor="middle">7B-70B params</text>
  <text x="700" y="315" font-family="Arial, sans-serif" font-size="10" fill="#666" text-anchor="middle">Decoder only</text>
  <text x="700" y="340" font-family="Arial, sans-serif" font-size="9" fill="#00BCD4" text-anchor="middle">Open Source</text>
  
  <!-- 2025 Box -->
  <rect x="830" y="125" width="140" height="280" rx="10" fill="#FBE9E7" stroke="#FF5722" stroke-width="2"/>
  <text x="900" y="150" font-family="Arial, sans-serif" font-size="12" font-weight="bold" fill="#D84315" text-anchor="middle">Modern</text>
  
  <rect x="845" y="165" width="110" height="25" rx="4" fill="#FF9800"/>
  <text x="900" y="182" font-family="Arial, sans-serif" font-size="9" fill="white" text-anchor="middle">Ring + Flash3</text>
  
  <rect x="845" y="195" width="110" height="25" rx="4" fill="#4CAF50"/>
  <text x="900" y="212" font-family="Arial, sans-serif" font-size="9" fill="white" text-anchor="middle">RMSNorm</text>
  
  <rect x="845" y="225" width="110" height="25" rx="4" fill="#673AB7"/>
  <text x="900" y="242" font-family="Arial, sans-serif" font-size="9" fill="white" text-anchor="middle">MoE (8 experts)</text>
  
  <rect x="845" y="255" width="110" height="25" rx="4" fill="#FF5722"/>
  <text x="900" y="272" font-family="Arial, sans-serif" font-size="9" fill="white" text-anchor="middle">RoPE / ALiBi</text>
  
  <text x="900" y="300" font-family="Arial, sans-serif" font-size="10" fill="#666" text-anchor="middle">~1T (MoE)</text>
  <text x="900" y="315" font-family="Arial, sans-serif" font-size="10" fill="#666" text-anchor="middle">Multimodal</text>
  <text x="900" y="340" font-family="Arial, sans-serif" font-size="9" fill="#FF5722" text-anchor="middle">Reasoning</text>
  
  <!-- Comparison Table -->
  <rect x="30" y="430" width="1040" height="350" rx="10" fill="#FAFAFA" stroke="#E0E0E0" stroke-width="2"/>
  <text x="550" y="460" font-family="Arial, sans-serif" font-size="16" font-weight="bold" fill="#333" text-anchor="middle">Component Evolution Comparison</text>
  
  <!-- Table Headers -->
  <rect x="50" y="480" width="150" height="35" fill="#E0E0E0"/>
  <text x="125" y="503" font-family="Arial, sans-serif" font-size="11" font-weight="bold" fill="#333" text-anchor="middle">Component</text>
  
  <rect x="200" y="480" width="160" height="35" fill="#E8F5E9"/>
  <text x="280" y="503" font-family="Arial, sans-serif" font-size="11" font-weight="bold" fill="#2E7D32" text-anchor="middle">2017</text>
  
  <rect x="360" y="480" width="160" height="35" fill="#E3F2FD"/>
  <text x="440" y="503" font-family="Arial, sans-serif" font-size="11" font-weight="bold" fill="#1565C0" text-anchor="middle">2018</text>
  
  <rect x="520" y="480" width="160" height="35" fill="#F3E5F5"/>
  <text x="600" y="503" font-family="Arial, sans-serif" font-size="11" font-weight="bold" fill="#7B1FA2" text-anchor="middle">2020</text>
  
  <rect x="680" y="480" width="160" height="35" fill="#E0F7FA"/>
  <text x="760" y="503" font-family="Arial, sans-serif" font-size="11" font-weight="bold" fill="#00838F" text-anchor="middle">2023</text>
  
  <rect x="840" y="480" width="160" height="35" fill="#FBE9E7"/>
  <text x="920" y="503" font-family="Arial, sans-serif" font-size="11" font-weight="bold" fill="#D84315" text-anchor="middle">2025</text>
  
  <!-- Row 1: Attention -->
  <text x="125" y="540" font-family="Arial, sans-serif" font-size="10" fill="#333" text-anchor="middle">Attention</text>
  <text x="280" y="540" font-family="Arial, sans-serif" font-size="9" fill="#666" text-anchor="middle">Full O(n2)</text>
  <text x="440" y="540" font-family="Arial, sans-serif" font-size="9" fill="#666" text-anchor="middle">Full O(n2)</text>
  <text x="600" y="540" font-family="Arial, sans-serif" font-size="9" fill="#666" text-anchor="middle">Sparse</text>
  <text x="760" y="540" font-family="Arial, sans-serif" font-size="9" fill="#666" text-anchor="middle">GQA + Flash</text>
  <text x="920" y="540" font-family="Arial, sans-serif" font-size="9" fill="#666" text-anchor="middle">Ring + Flash3</text>
  
  <!-- Row 2: Norm -->
  <text x="125" y="575" font-family="Arial, sans-serif" font-size="10" fill="#333" text-anchor="middle">Normalization</text>
  <text x="280" y="575" font-family="Arial, sans-serif" font-size="9" fill="#666" text-anchor="middle">Post-LayerNorm</text>
  <text x="440" y="575" font-family="Arial, sans-serif" font-size="9" fill="#666" text-anchor="middle">Post-LayerNorm</text>
  <text x="600" y="575" font-family="Arial, sans-serif" font-size="9" fill="#666" text-anchor="middle">Pre-LayerNorm</text>
  <text x="760" y="575" font-family="Arial, sans-serif" font-size="9" fill="#666" text-anchor="middle">RMSNorm</text>
  <text x="920" y="575" font-family="Arial, sans-serif" font-size="9" fill="#666" text-anchor="middle">RMSNorm</text>
  
  <!-- Row 3: Position -->
  <text x="125" y="610" font-family="Arial, sans-serif" font-size="10" fill="#333" text-anchor="middle">Position</text>
  <text x="280" y="610" font-family="Arial, sans-serif" font-size="9" fill="#666" text-anchor="middle">Sinusoidal</text>
  <text x="440" y="610" font-family="Arial, sans-serif" font-size="9" fill="#666" text-anchor="middle">Learned</text>
  <text x="600" y="610" font-family="Arial, sans-serif" font-size="9" fill="#666" text-anchor="middle">Learned</text>
  <text x="760" y="610" font-family="Arial, sans-serif" font-size="9" fill="#666" text-anchor="middle">RoPE</text>
  <text x="920" y="610" font-family="Arial, sans-serif" font-size="9" fill="#666" text-anchor="middle">RoPE/ALiBi</text>
  
  <!-- Row 4: FFN -->
  <text x="125" y="645" font-family="Arial, sans-serif" font-size="10" fill="#333" text-anchor="middle">FFN</text>
  <text x="280" y="645" font-family="Arial, sans-serif" font-size="9" fill="#666" text-anchor="middle">ReLU</text>
  <text x="440" y="645" font-family="Arial, sans-serif" font-size="9" fill="#666" text-anchor="middle">GELU</text>
  <text x="600" y="645" font-family="Arial, sans-serif" font-size="9" fill="#666" text-anchor="middle">GELU</text>
  <text x="760" y="645" font-family="Arial, sans-serif" font-size="9" fill="#666" text-anchor="middle">SwiGLU</text>
  <text x="920" y="645" font-family="Arial, sans-serif" font-size="9" fill="#666" text-anchor="middle">MoE SwiGLU</text>
  
  <!-- Row 5: Context -->
  <text x="125" y="680" font-family="Arial, sans-serif" font-size="10" fill="#333" text-anchor="middle">Context</text>
  <text x="280" y="680" font-family="Arial, sans-serif" font-size="9" fill="#666" text-anchor="middle">512</text>
  <text x="440" y="680" font-family="Arial, sans-serif" font-size="9" fill="#666" text-anchor="middle">512-1024</text>
  <text x="600" y="680" font-family="Arial, sans-serif" font-size="9" fill="#666" text-anchor="middle">2048</text>
  <text x="760" y="680" font-family="Arial, sans-serif" font-size="9" fill="#666" text-anchor="middle">32K-128K</text>
  <text x="920" y="680" font-family="Arial, sans-serif" font-size="9" fill="#666" text-anchor="middle">1M+</text>
  
  <!-- Row 6: Params -->
  <text x="125" y="715" font-family="Arial, sans-serif" font-size="10" fill="#333" text-anchor="middle">Parameters</text>
  <text x="280" y="715" font-family="Arial, sans-serif" font-size="9" fill="#666" text-anchor="middle">65M</text>
  <text x="440" y="715" font-family="Arial, sans-serif" font-size="9" fill="#666" text-anchor="middle">340M</text>
  <text x="600" y="715" font-family="Arial, sans-serif" font-size="9" fill="#666" text-anchor="middle">175B</text>
  <text x="760" y="715" font-family="Arial, sans-serif" font-size="9" fill="#666" text-anchor="middle">7B-70B</text>
  <text x="920" y="715" font-family="Arial, sans-serif" font-size="9" fill="#666" text-anchor="middle">~1T MoE</text>
  
  <!-- Table lines -->
  <line x1="50" y1="520" x2="1000" y2="520" stroke="#E0E0E0" stroke-width="1"/>
  <line x1="50" y1="555" x2="1000" y2="555" stroke="#E0E0E0" stroke-width="1"/>
  <line x1="50" y1="590" x2="1000" y2="590" stroke="#E0E0E0" stroke-width="1"/>
  <line x1="50" y1="625" x2="1000" y2="625" stroke="#E0E0E0" stroke-width="1"/>
  <line x1="50" y1="660" x2="1000" y2="660" stroke="#E0E0E0" stroke-width="1"/>
  <line x1="50" y1="695" x2="1000" y2="695" stroke="#E0E0E0" stroke-width="1"/>
  <line x1="50" y1="730" x2="1000" y2="730" stroke="#E0E0E0" stroke-width="1"/>
  
  <!-- Key insight -->
  <rect x="50" y="745" width="1000" height="35" rx="6" fill="#FFF8E1"/>
  <text x="550" y="768" font-family="Arial, sans-serif" font-size="11" fill="#F57F17" text-anchor="middle">Key Insight: Architecture stayed mostly the same! Improvements came from better normalization, positions, activations, and efficient attention</text>
</svg>