<svg width="1200" height="400" viewBox="0 0 1200 400" xmlns="http://www.w3.org/2000/svg">
  <!-- Background - Original purple theme -->
  <rect x="0" y="0" width="1200" height="400" fill="#1A237E"/>
  <rect x="0" y="0" width="600" height="400" fill="#311B92" opacity="0.6"/>
  <rect x="600" y="0" width="600" height="400" fill="#4A148C" opacity="0.4"/>
  
  <!-- Subtle grid pattern -->
  <g opacity="0.08">
    <line x1="0" y1="50" x2="1200" y2="50" stroke="#B39DDB" stroke-width="1"/>
    <line x1="0" y1="100" x2="1200" y2="100" stroke="#B39DDB" stroke-width="1"/>
    <line x1="0" y1="150" x2="1200" y2="150" stroke="#B39DDB" stroke-width="1"/>
    <line x1="0" y1="200" x2="1200" y2="200" stroke="#B39DDB" stroke-width="1"/>
    <line x1="0" y1="250" x2="1200" y2="250" stroke="#B39DDB" stroke-width="1"/>
    <line x1="0" y1="300" x2="1200" y2="300" stroke="#B39DDB" stroke-width="1"/>
    <line x1="0" y1="350" x2="1200" y2="350" stroke="#B39DDB" stroke-width="1"/>
    <line x1="100" y1="0" x2="100" y2="400" stroke="#B39DDB" stroke-width="1"/>
    <line x1="200" y1="0" x2="200" y2="400" stroke="#B39DDB" stroke-width="1"/>
    <line x1="300" y1="0" x2="300" y2="400" stroke="#B39DDB" stroke-width="1"/>
    <line x1="400" y1="0" x2="400" y2="400" stroke="#B39DDB" stroke-width="1"/>
    <line x1="500" y1="0" x2="500" y2="400" stroke="#B39DDB" stroke-width="1"/>
    <line x1="600" y1="0" x2="600" y2="400" stroke="#B39DDB" stroke-width="1"/>
    <line x1="700" y1="0" x2="700" y2="400" stroke="#B39DDB" stroke-width="1"/>
    <line x1="800" y1="0" x2="800" y2="400" stroke="#B39DDB" stroke-width="1"/>
    <line x1="900" y1="0" x2="900" y2="400" stroke="#B39DDB" stroke-width="1"/>
    <line x1="1000" y1="0" x2="1000" y2="400" stroke="#B39DDB" stroke-width="1"/>
    <line x1="1100" y1="0" x2="1100" y2="400" stroke="#B39DDB" stroke-width="1"/>
  </g>
  
  <!-- Glowing orbs - purple theme -->
  <circle cx="150" cy="100" r="100" fill="#7C4DFF" opacity="0.2"/>
  <circle cx="1050" cy="300" r="120" fill="#E040FB" opacity="0.15"/>
  <circle cx="600" cy="380" r="80" fill="#651FFF" opacity="0.15"/>
  
  <!-- Neural network visualization - left -->
  <g opacity="0.7">
    <circle cx="80" cy="120" r="6" fill="#64FFDA"/>
    <circle cx="80" cy="160" r="6" fill="#64FFDA"/>
    <circle cx="80" cy="200" r="6" fill="#64FFDA"/>
    <circle cx="150" cy="140" r="6" fill="#B388FF"/>
    <circle cx="150" cy="180" r="6" fill="#B388FF"/>
    <circle cx="220" cy="160" r="6" fill="#FF80AB"/>
    <line x1="86" y1="120" x2="144" y2="140" stroke="#64FFDA" stroke-width="1" opacity="0.5"/>
    <line x1="86" y1="160" x2="144" y2="140" stroke="#64FFDA" stroke-width="1" opacity="0.5"/>
    <line x1="86" y1="160" x2="144" y2="180" stroke="#64FFDA" stroke-width="1" opacity="0.5"/>
    <line x1="86" y1="200" x2="144" y2="180" stroke="#64FFDA" stroke-width="1" opacity="0.5"/>
    <line x1="156" y1="140" x2="214" y2="160" stroke="#B388FF" stroke-width="1" opacity="0.5"/>
    <line x1="156" y1="180" x2="214" y2="160" stroke="#B388FF" stroke-width="1" opacity="0.5"/>
  </g>
  
  <!-- Neural network visualization - right -->
  <g opacity="0.7">
    <circle cx="980" cy="200" r="6" fill="#FF80AB"/>
    <circle cx="980" cy="240" r="6" fill="#FF80AB"/>
    <circle cx="1050" cy="180" r="6" fill="#B388FF"/>
    <circle cx="1050" cy="220" r="6" fill="#B388FF"/>
    <circle cx="1050" cy="260" r="6" fill="#B388FF"/>
    <circle cx="1120" cy="200" r="6" fill="#64FFDA"/>
    <circle cx="1120" cy="240" r="6" fill="#64FFDA"/>
    <line x1="986" y1="200" x2="1044" y2="180" stroke="#FF80AB" stroke-width="1" opacity="0.5"/>
    <line x1="986" y1="200" x2="1044" y2="220" stroke="#FF80AB" stroke-width="1" opacity="0.5"/>
    <line x1="986" y1="240" x2="1044" y2="220" stroke="#FF80AB" stroke-width="1" opacity="0.5"/>
    <line x1="986" y1="240" x2="1044" y2="260" stroke="#FF80AB" stroke-width="1" opacity="0.5"/>
    <line x1="1056" y1="180" x2="1114" y2="200" stroke="#B388FF" stroke-width="1" opacity="0.5"/>
    <line x1="1056" y1="220" x2="1114" y2="200" stroke="#B388FF" stroke-width="1" opacity="0.5"/>
    <line x1="1056" y1="220" x2="1114" y2="240" stroke="#B388FF" stroke-width="1" opacity="0.5"/>
    <line x1="1056" y1="260" x2="1114" y2="240" stroke="#B388FF" stroke-width="1" opacity="0.5"/>
  </g>
  
  <!-- Main content -->
  <!-- Emoji/Icon -->
  <text x="600" y="90" font-family="Arial, sans-serif" font-size="40" text-anchor="middle">🤖</text>
  
  <!-- Main Title -->
  <text x="600" y="155" font-family="Arial, sans-serif" font-size="52" font-weight="bold" fill="white" text-anchor="middle">The Complete Transformer Guide</text>
  
  <!-- Gradient underline -->
  <rect x="350" y="170" width="500" height="4" rx="2" fill="#7C4DFF"/>
  
  <!-- Subtitle -->
  <text x="600" y="215" font-family="Arial, sans-serif" font-size="24" fill="#B39DDB" text-anchor="middle">From Problems to Solutions</text>
  
  <!-- Year badge -->
  <rect x="520" y="240" width="160" height="36" rx="18" fill="#311B92" stroke="#7C4DFF" stroke-width="2"/>
  <text x="600" y="265" font-family="Arial, sans-serif" font-size="16" fill="#E1BEE7" text-anchor="middle">2017 → 2025</text>
  
  <!-- Quote -->
  <text x="600" y="320" font-family="Georgia, serif" font-size="18" font-style="italic" fill="#CE93D8" text-anchor="middle">"Attention Is All You Need"</text>
  <text x="600" y="350" font-family="Arial, sans-serif" font-size="14" fill="#9575CD" text-anchor="middle">Vaswani et al., 2017</text>
  
  <!-- Bottom accent line -->
  <rect x="0" y="395" width="1200" height="5" fill="#7C4DFF"/>
</svg>